<svg xmlns="http://www.w3.org/2000/svg" xml:space="preserve" width="2000" height="1500" stroke="#000" data-id="lg_z0y8Mbdf45aASbsF2P" data-version="1"><path stroke="transparent" d="M0 0h2000v1500H0z"/><g data-padding="20"><g transform="translate(-1074.022 -796.878)scale(2.00428)"><path fill="#fff" stroke="none" d="M1026.256 990.655q-29.44 0-48.02-12.46-18.59-12.46-27.39-36.95-8.81-24.49-8.81-60.59v-172.94q0-32.66 8.59-55.86 8.59-23.21 27.29-35.67 18.69-12.46 48.98-12.46 22.77 0 38.46 7.09 15.68 7.09 25.35 20.52t14.07 32.65q4.41 19.23 4.41 43.73v172.94q0 36.1-8.49 60.59t-26.75 36.95-47.69 12.46m0-49.84q10.74 0 16.11-6.44 5.37-6.45 7.2-19.66 1.82-13.22 1.82-33.41v-176.17q0-24.71-4.62-38.14t-19.87-13.43q-15.68 0-21.27 13t-5.59 38.35v176.39q0 20.62 1.83 33.84 1.83 13.21 7.52 19.44t16.87 6.23"/><rect width="214.73" height="497.2" x="528.266" y="111.465" fill="none" stroke="none" rx="0" ry="0" transform="translate(390.53 431.67)"/><g fill="#fff" stroke-width="45" transform="translate(399.17 374.1)scale(1.03)"><path d="m392.913 125.378 448.4 448.4"/>undefined
        undefined</g></g><path fill="transparent" stroke="transparent" stroke-width="2.095" d="M516.061 187.5h967.878v1125H516.06z"/></g></svg>